<?xml version="1.0" standalone="no"?>
<!DOCTYPE svg PUBLIC "-//W3C//DTD SVG 20010904//EN"
 "http://www.w3.org/TR/2001/REC-SVG-20010904/DTD/svg10.dtd">
<svg version="1.0" xmlns="http://www.w3.org/2000/svg"
 width="633.000000pt" height="633.000000pt" viewBox="0 0 633.000000 633.000000"
 preserveAspectRatio="xMidYMid meet">
<metadata>
Created by potrace 1.11, written by Peter Selinger 2001-2013
</metadata>
<g transform="translate(0.000000,633.000000) scale(0.100000,-0.100000)"
fill="#000000" stroke="none">
<path d="M1530 5755 c-84 -19 -138 -39 -230 -88 -216 -114 -327 -229 -422
-436 -22 -47 -46 -90 -53 -96 -7 -5 -69 -53 -137 -104 -67 -52 -141 -114 -163
-136 l-41 -42 -129 43 c-123 40 -160 49 -248 60 -29 4 -37 1 -37 -11 0 -10 10
-15 30 -16 17 -1 33 -2 38 -3 4 -1 25 -5 47 -10 22 -4 95 -25 162 -47 l123
-40 -15 -29 c-13 -26 -18 -28 -46 -20 -17 5 -34 9 -38 8 -3 -1 -22 2 -41 5
-19 4 -48 9 -65 12 -16 3 -71 8 -122 10 -71 3 -94 1 -104 -11 -6 -8 -10 -14
-8 -14 69 -1 221 -10 239 -14 32 -7 72 -14 125 -22 37 -5 42 -9 43 -33 1 -26
-2 -28 -48 -30 -27 -1 -57 -3 -67 -5 -10 -2 -40 -7 -66 -10 -106 -16 -235 -51
-253 -68 -3 -4 -3 -11 1 -17 4 -7 18 -6 43 5 71 30 214 57 357 68 32 3 32 2
54 -73 46 -158 156 -344 254 -434 81 -74 196 -138 277 -152 58 -11 162 -13
212 -6 43 7 48 6 54 -13 13 -40 12 -161 -1 -240 -28 -161 -57 -267 -122 -446
-55 -150 -111 -316 -119 -350 -3 -14 -7 -36 -10 -50 -3 -14 -7 -32 -9 -40 -2
-8 -7 -42 -11 -75 -3 -33 -8 -69 -10 -80 -5 -26 -5 -261 1 -300 2 -16 6 -52 9
-80 20 -176 85 -392 168 -560 33 -66 32 -79 -2 -207 -62 -236 -181 -433 -295
-488 -39 -19 -176 -50 -281 -64 -83 -11 -246 -47 -298 -67 -70 -26 -131 -70
-152 -111 -20 -39 -23 -103 -6 -120 21 -21 100 -13 202 20 52 16 120 33 150
37 69 10 221 10 320 2 217 -18 277 -21 410 -21 147 0 209 9 309 45 119 43 217
125 285 238 29 47 42 61 55 56 63 -27 183 -69 216 -77 67 -16 78 -18 135 -29
134 -24 364 -32 500 -16 169 19 180 19 180 9 0 -21 152 -171 222 -219 117 -81
215 -123 367 -160 128 -31 462 -22 502 13 9 8 38 17 65 20 105 12 168 38 179
75 4 10 15 19 25 19 50 0 125 50 148 98 19 39 18 82 0 82 -19 0 -171 77 -208
105 l-35 27 60 -7 c33 -3 74 -8 90 -11 237 -33 930 -39 1125 -9 14 2 52 7 85
10 95 11 140 18 209 31 98 18 242 64 333 105 144 67 199 130 188 218 -5 43 -4
50 18 64 37 24 66 78 71 130 4 39 0 52 -26 88 -25 34 -28 45 -19 63 10 21 14
51 12 93 -1 30 -55 89 -87 97 l-25 7 19 27 c40 57 48 104 25 143 -30 50 -50
50 -308 -2 -55 -11 -111 -22 -125 -24 -14 -2 -41 -6 -60 -9 -67 -11 -135 -16
-152 -10 -10 3 -19 20 -23 47 -4 23 -11 56 -16 72 -141 475 -367 758 -725 909
-80 34 -211 70 -294 81 -25 3 -56 8 -70 10 -14 2 -56 7 -95 10 -134 11 -284
25 -315 30 -14 2 -47 7 -75 10 -27 3 -57 7 -65 10 -8 2 -26 6 -40 9 -114 20
-217 55 -323 108 -331 165 -570 432 -684 763 -42 122 -60 206 -78 349 -2 22
-9 42 -15 46 -6 4 -6 18 0 40 24 92 33 252 18 349 -46 306 -266 595 -576 754
-77 40 -292 123 -292 112 0 -2 -15 1 -32 6 -57 17 -276 19 -348 4z"/>
</g>
</svg>
